<svg id="eW2LsaDt1Oq1" xmlns="http://www.w3.org/2000/svg" xmlns:xlink="http://www.w3.org/1999/xlink" viewBox="0 0 2048 2048" shape-rendering="geometricPrecision" text-rendering="geometricPrecision" project-id="bd79bf72cfd343879c999c29c1f9e542" export-id="d409d4472eeb4d659646d4aaeea766d1" cached="false"><g transform="matrix(.809043 0 0 0.809043 396.231765 176.752482)"><path d="M102,522v1366h1198v-159" fill="none" stroke="#fdfaf5" stroke-width="110" stroke-linecap="round" stroke-linejoin="round"/><path d="M276,344v1366h1200v-1572h-916L276,344ZM560,138v206h-284M1476,456h99l110.5946-144.77845M1476,674h136l68-94h108M1476,920h168m-168,248h136l68,92h108m-312,124h98l116.0153,150.9597" fill="none" stroke="#fdfaf5" stroke-width="110" stroke-linecap="round" stroke-linejoin="round"/><path d="M592,466h51.99998M834,466h94m192,0h52M456,618h52m186,0h94m188,0h94m186,0h52M456,770h52m186,0h94m188,0h94m186,0h52M456,924h52m186,0h94m188,0h94m186,0h52M456,1076h52m186,0h94m188,0h94m186,0h52M456,1228h52m186,0h94m188,0h94m186,0h52M456,1380h52m186,0h94m188,0h94m186,0h52M456,1534h52m186,0h94m188,0h94m186,0h52" fill="none" stroke="#fdfaf5" stroke-width="110" stroke-linecap="round" stroke-linejoin="round"/><circle r="80" transform="translate(1740 240)" fill="none" stroke="#fdfaf5" stroke-width="110" stroke-linecap="round" stroke-linejoin="round"/><g transform="translate(-4.590133-30.961214)"><circle r="80" transform="translate(-153.746166 1260)" fill="none" stroke="#fdfaf5" stroke-width="110" stroke-linecap="round" stroke-linejoin="round"/><rect width="119.895466" height="312.411535" rx="56" ry="56" transform="matrix(0 0.914445-.808146 0 130.447896 1205.181095)" fill="#fdfaf5" stroke-width="0"/></g><g transform="translate(-6.922942 5.921052)"><circle r="80" transform="translate(-309.19839 880.643336)" fill="none" stroke="#fdfaf5" stroke-width="110" stroke-linecap="round" stroke-linejoin="round"/><g transform="matrix(0-1-1 0 1780.350197 1958.538122)"><rect width="119.895466" height="312.411535" rx="59.95" ry="59.95" transform="matrix(-.914445 0 0-.530253 1039.777409 1854.09634)" fill="#fdfaf5" stroke-width="0"/><rect width="119.895466" height="312.411535" rx="59.95" ry="59.95" transform="matrix(-.64661 0.64661-.511324-.511324 1148.45054 1898.721424)" fill="#fdfaf5" stroke="#fdfaf5"/><rect width="119.895466" height="312.411535" rx="59.95" ry="59.95" transform="matrix(-.914445 0 0-.659081 1132.713691 2060.00087)" fill="#fdfaf5" stroke-width="0"/></g></g><circle r="80" transform="translate(1868 580)" fill="none" stroke="#fdfaf5" stroke-width="110" stroke-linecap="round" stroke-linejoin="round"/><circle r="80" transform="translate(1724 920)" fill="none" stroke="#fdfaf5" stroke-width="110" stroke-linecap="round" stroke-linejoin="round"/><circle r="80" transform="translate(1868 1260)" fill="none" stroke="#fdfaf5" stroke-width="110" stroke-linecap="round" stroke-linejoin="round"/><circle r="80" transform="translate(1740 1600)" fill="none" stroke="#fdfaf5" stroke-width="110" stroke-linecap="round" stroke-linejoin="round"/><g transform="translate(13.56946 82.474426)"><g transform="matrix(0-1-1 0 1780.350174 1952.603271)"><rect width="119.895466" height="312.411535" rx="59.95" ry="59.95" transform="matrix(-.914445 0 0-.530253 1333.769648 1854.09634)" fill="#fdfaf5" stroke-width="0"/><rect width="119.895466" height="312.411535" rx="59.95" ry="59.95" transform="matrix(-.64661 0.64661-.549741-.549741 1452.603332 1910.723468)" fill="#fdfaf5" stroke-width="0"/></g><circle r="80" transform="translate(-207.898932 497.525577)" fill="none" stroke="#fdfaf5" stroke-width="110" stroke-linecap="round" stroke-linejoin="round"/></g><g transform="matrix(1 0 0-1 29.383077 2373.96936)"><g transform="matrix(0-1-1 0 1780.350174 1952.603271)"><rect width="119.895466" height="312.411535" rx="59.95" ry="59.95" transform="matrix(-.914445 0 0-.530253 1333.769648 1854.09634)" fill="#fdfaf5" stroke-width="0"/><rect width="119.895466" height="312.411535" rx="59.95" ry="59.95" transform="matrix(-.64661 0.64661-.549741-.549741 1452.603332 1910.723468)" fill="#fdfaf5" stroke-width="0"/></g><circle r="80" transform="translate(-207.898932 497.525577)" fill="none" stroke="#fdfaf5" stroke-width="110" stroke-linecap="round" stroke-linejoin="round"/></g><g transform="matrix(1 0 0-1-6.922977 2444)"><circle r="80" transform="translate(-309.19839 880.643336)" fill="none" stroke="#fdfaf5" stroke-width="110" stroke-linecap="round" stroke-linejoin="round"/><g transform="matrix(0-1-1 0 1780.350197 1958.538122)"><rect width="119.895466" height="312.411535" rx="59.95" ry="59.95" transform="matrix(-.914445 0 0-.530253 1039.777409 1854.09634)" fill="#fdfaf5" stroke-width="0"/><rect width="119.895466" height="312.411535" rx="59.95" ry="59.95" transform="matrix(-.64661 0.64661-.511324-.511324 1148.45054 1898.721424)" fill="#fdfaf5" stroke="#fdfaf5"/><rect width="119.895466" height="312.411535" rx="59.95" ry="59.95" transform="matrix(-.914445 0 0-.659081 1132.713691 2060.00087)" fill="#fdfaf5" stroke-width="0"/></g></g></g><circle r="80" transform="translate(1088.555179 2844.861592)" fill="none" stroke="#fdfaf5" stroke-width="110" stroke-linecap="round" stroke-linejoin="round"/><circle r="80" transform="translate(340.071041 3575.380385)" fill="none" stroke="#fdfaf5" stroke-width="110" stroke-linecap="round" stroke-linejoin="round"/><g transform="translate(-647.521894 1236.422383)"><rect width="119.895466" height="312.411535" rx="59.95" ry="59.95" transform="matrix(-.914445 0 0-.530253 1333.769648 1854.09634)" fill="#fdfaf5" stroke-width="0"/><rect width="119.895466" height="312.411535" rx="59.95" ry="59.95" transform="matrix(-.64661 0.64661-.549741-.549741 1452.603332 1910.723468)" fill="#fdfaf5" stroke-width="0"/></g><g transform="matrix(0 1-1 0 2988.439209 2232.256325)"><rect width="119.895466" height="312.411535" rx="59.95" ry="59.95" transform="matrix(-.914445 0 0-.530253 1039.777409 1854.09634)" fill="#fdfaf5" stroke-width="0"/><rect width="119.895466" height="312.411535" rx="59.95" ry="59.95" transform="matrix(-.64661 0.64661-.349553-.349553 1101.619459 1848.182556)" fill="#fdfaf5" stroke="#fdfaf5"/><rect width="119.895466" height="312.411535" rx="59.95" ry="59.95" transform="matrix(-.914445 0 0-.798536 1086.818905 2053.10316)" fill="#fdfaf5" stroke-width="0"/></g></svg>
